# xmcd CD database file
#
# Track frame offsets:
#	150
#	13950
#	40200
#	53632
#	74246
#	91196
#	101246
#	119002
#	141352
#	158512
#	172872
#	189972
#	205274
#	221024
#	240267
#
# Disc length: 3410 seconds
#
# Revision: 3
# Processed by: cddbd v1.5.2PL0 Copyright (c) Steve Scherf et al.
# Submitted via: CDex 1.51
#
DISCID=d40d500f
DTITLE=Paul Lamp and Chad Strentz - Goin Down This Road
DYEAR=2013
DGENRE=Blues
TTITLE0=01 The Underdog
TTITLE1=02 Careless Love
TTITLE2=03 Going Down this road
TTITLE3=04 Pass Me Not
TTITLE4=05 Summertyne 
TTITLE5=06 Lawdy Miss Clawdy
TTITLE6=07 Ida Mae
TTITLE7=08 Dont You Feel Like Cryin
TTITLE8=09 The Games People Play
TTITLE9=10 Wine Spody Ody
TTITLE10=11 Fattnin Frogs For Snakes
TTITLE11=12 Hootin and Tootin
TTITLE12=13 Feels So Good
TTITLE13=14 Take These Chains
TTITLE14=15 Nothing But The Truth
EXTD=YEAR: 2013
EXTT0=
EXTT1=
EXTT2=
EXTT3=
EXTT4=
EXTT5=
EXTT6=
EXTT7=
EXTT8=
EXTT9=
EXTT10=
EXTT11=
EXTT12=
EXTT13=
EXTT14=
PLAYORDER=
